<svg width="194" height="34" viewBox="0 0 194 34" fill="none" xmlns="http://www.w3.org/2000/svg">
<path d="M5.95043 13.5801V21.27C5.95043 22.2926 5.14691 23.1094 4.12426 23.1094C3.10824 23.1094 2.12543 22.286 2.12543 21.27V13.5801C2.12543 12.5774 3.10824 11.754 4.12426 11.754C5.12699 11.754 5.95043 12.5774 5.95043 13.5801ZM6.66761 24.0059C6.66761 25.095 7.54418 25.9715 8.63324 25.9715H9.95472L9.97465 30.029C9.97465 32.4794 13.6403 32.4594 13.6403 30.029V25.9715H16.1106V30.029C16.1106 32.4661 19.7961 32.4727 19.7961 30.029V25.9715H21.1375C22.2133 25.9715 23.0899 25.095 23.0899 24.0059V12.0926H6.66761V24.0059ZM23.1364 11.4485H6.59457C6.59457 8.60631 8.29457 6.136 10.818 4.84772L9.54965 2.50358C9.36371 2.17819 9.83519 1.97233 9.99457 2.25123L11.2828 4.6153C13.6004 3.586 16.2633 3.63912 18.4746 4.6153L19.7563 2.25787C19.9223 1.97233 20.3871 2.18483 20.2012 2.51022L18.9328 4.84772C21.4364 6.136 23.1364 8.60631 23.1364 11.4485ZM11.8008 7.76295C11.8008 7.38444 11.4953 7.06569 11.1036 7.06569C10.725 7.06569 10.4262 7.38444 10.4262 7.76295C10.4262 8.14147 10.7317 8.46022 11.1036 8.46022C11.4953 8.46022 11.8008 8.14147 11.8008 7.76295ZM19.3313 7.76295C19.3313 7.38444 19.0258 7.06569 18.6539 7.06569C18.2621 7.06569 17.9567 7.38444 17.9567 7.76295C17.9567 8.14147 18.2621 8.46022 18.6539 8.46022C19.0258 8.46022 19.3313 8.14147 19.3313 7.76295ZM25.6266 11.754C24.6239 11.754 23.8004 12.5575 23.8004 13.5801V21.27C23.8004 22.2926 24.6239 23.1094 25.6266 23.1094C26.6493 23.1094 27.6254 22.286 27.6254 21.27V13.5801C27.6254 12.5575 26.6426 11.754 25.6266 11.754Z" fill="white" fill-opacity="0.42"/>
<path d="M71.1605 5.12802C70.0437 6.47152 68.2569 7.53118 66.4701 7.3798C66.2467 5.56324 67.1215 3.63313 68.1452 2.44101C69.262 1.05966 71.2163 0.0756903 72.7984 0C72.9845 1.89226 72.2586 3.74667 71.1605 5.12802ZM72.7798 7.73933C70.1926 7.58795 67.9777 9.23421 66.7493 9.23421C65.5022 9.23421 63.6224 7.81502 61.575 7.85287C58.9134 7.89071 56.4379 9.42344 55.0792 11.8645C52.2873 16.7465 54.3533 23.9749 57.0521 27.9486C58.3736 29.9166 59.9557 32.0738 62.0403 31.9981C64.0132 31.9224 64.795 30.6924 67.1774 30.6924C69.5784 30.6924 70.2671 31.9981 72.3517 31.9602C74.5107 31.9224 75.8694 29.9923 77.1909 28.0243C78.6986 25.7915 79.3128 23.6154 79.35 23.5018C79.3128 23.464 75.1808 21.8556 75.1436 17.0114C75.1063 12.962 78.4008 11.0319 78.5497 10.9183C76.6884 8.11778 73.7848 7.81502 72.7798 7.73933Z" fill="#636D85"/>
<path d="M129.912 22.312C130.214 22.4331 130.475 22.6395 130.662 22.906C130.83 23.156 130.948 23.458 131.022 23.812C131.062 24.02 131.11 24.212 131.162 24.392C131.26 24.7293 131.408 25.0501 131.6 25.344C131.694 25.49 131.82 25.65 131.976 25.828C132.11 25.974 132.23 26.162 132.336 26.39C132.434 26.5951 132.486 26.8188 132.49 27.046C132.498 27.2644 132.432 27.4791 132.304 27.656C132.173 27.8278 132.014 27.9759 131.834 28.094C131.594 28.26 131.344 28.406 131.084 28.532C130.824 28.656 130.564 28.786 130.304 28.922C129.915 29.1073 129.544 29.3268 129.194 29.578C128.882 29.808 128.568 30.098 128.256 30.454C127.892 30.8615 127.471 31.2138 127.006 31.5C126.768 31.6507 126.51 31.7665 126.24 31.844C125.98 31.916 125.72 31.964 125.46 31.984C124.856 31.984 124.356 31.88 123.96 31.672C123.564 31.464 123.22 31.084 122.928 30.532C122.844 30.374 122.762 30.276 122.678 30.234C122.548 30.179 122.412 30.142 122.272 30.124L120.69 30C120.17 29.96 119.64 29.938 119.098 29.938C118.648 29.9386 118.198 29.9747 117.754 30.046C117.296 30.12 116.842 30.208 116.394 30.312C116.302 30.332 116.208 30.412 116.114 30.546C115.997 30.7086 115.866 30.8605 115.722 31C115.527 31.1855 115.3 31.334 115.052 31.438C114.698 31.5761 114.321 31.6447 113.942 31.64C113.598 31.64 113.228 31.604 112.832 31.532C112.461 31.4676 112.103 31.3461 111.77 31.172C111.169 30.8645 110.527 30.6436 109.864 30.516C109.238 30.402 108.578 30.296 107.88 30.204C107.649 30.1739 107.419 30.1318 107.192 30.078C106.982 30.0306 106.785 29.94 106.612 29.812C106.453 29.6947 106.321 29.5455 106.224 29.374C106.117 29.1555 106.063 28.9151 106.066 28.672C106.066 28.348 106.108 28.036 106.192 27.734C106.276 27.434 106.322 27.114 106.332 26.782C106.332 26.552 106.316 26.328 106.286 26.11C106.253 25.8766 106.231 25.6416 106.222 25.406C106.222 24.876 106.348 24.486 106.598 24.234C106.848 23.984 107.212 23.786 107.692 23.64C107.905 23.5755 108.106 23.4754 108.286 23.344C108.451 23.2195 108.607 23.0838 108.754 22.938C108.903 22.7885 109.039 22.6266 109.16 22.454C109.286 22.276 109.426 22.098 109.582 21.922C109.613 21.882 109.63 21.8327 109.63 21.782C109.63 21.656 109.624 21.536 109.614 21.422L109.582 21.046C109.582 20.338 109.692 19.626 109.91 18.906C110.13 18.186 110.416 17.486 110.77 16.796C111.123 16.1101 111.52 15.4474 111.958 14.812C112.394 14.178 112.828 13.588 113.254 13.046C113.833 12.3216 114.292 11.5093 114.614 10.64C114.914 9.808 115.072 8.9 115.082 7.92C115.082 7.506 115.062 7.094 115.02 6.688C114.978 6.27266 114.957 5.85545 114.958 5.438C114.958 4.604 115.052 3.854 115.238 3.188C115.426 2.52 115.718 1.948 116.114 1.468C116.51 0.988 117.026 0.63 117.66 0.39C118.298 0.15 119.058 0.02 119.942 0C120.996 0 121.834 0.208 122.46 0.626C123.084 1.042 123.564 1.588 123.896 2.266C124.23 2.942 124.444 3.698 124.536 4.532C124.632 5.364 124.684 6.208 124.694 7.062V7.328C124.694 7.756 124.698 8.136 124.71 8.468C124.729 9.14299 124.882 9.8074 125.162 10.422C125.308 10.744 125.526 11.094 125.818 11.468C126.318 12.126 126.83 12.788 127.35 13.454C127.87 14.12 128.344 14.808 128.77 15.514C129.198 16.224 129.548 16.964 129.818 17.734C130.09 18.506 130.23 19.338 130.24 20.234C130.243 20.9404 130.132 21.6427 129.912 22.314V22.312ZM116.804 6.032C116.948 6.032 117.068 6.068 117.164 6.14C117.261 6.2185 117.337 6.32127 117.382 6.438C117.432 6.55812 117.468 6.68361 117.49 6.812C117.51 6.938 117.522 7.068 117.522 7.204C117.525 7.2899 117.509 7.37541 117.474 7.454C117.44 7.5204 117.392 7.57897 117.334 7.626L117.146 7.782C117.079 7.83876 117.017 7.90098 116.96 7.968C116.885 8.08477 116.783 8.18155 116.662 8.25C116.538 8.3219 116.418 8.4 116.302 8.484C116.191 8.56438 116.087 8.65332 115.99 8.75C115.941 8.80221 115.904 8.86367 115.88 8.93069C115.856 8.99771 115.846 9.06891 115.85 9.14C115.85 9.234 115.896 9.312 115.99 9.374C116.223 9.52088 116.408 9.73298 116.522 9.984C116.626 10.224 116.742 10.458 116.866 10.688C116.99 10.916 117.152 11.108 117.35 11.266C117.548 11.422 117.856 11.5 118.27 11.5H118.366C118.782 11.48 119.178 11.37 119.554 11.172C119.928 10.974 120.304 10.766 120.678 10.546C120.743 10.5094 120.811 10.4786 120.882 10.454C120.955 10.4281 121.023 10.391 121.084 10.344L122.224 9.454C122.244 9.38696 122.26 9.31885 122.272 9.25C122.284 9.17689 122.295 9.10354 122.304 9.03C122.307 8.93057 122.279 8.83257 122.224 8.75C122.173 8.67745 122.11 8.61391 122.038 8.562C121.958 8.50748 121.867 8.47066 121.772 8.454C121.677 8.43486 121.583 8.40811 121.492 8.374C121.243 8.32275 121.004 8.22797 120.788 8.094C120.573 7.96059 120.342 7.85571 120.1 7.782C120.06 7.77 120.028 7.74 120.006 7.688C119.982 7.62641 119.961 7.56367 119.944 7.5C119.923 7.43406 119.918 7.36434 119.928 7.296C119.939 7.24362 119.934 7.18897 119.912 7.14C119.912 7.016 119.922 6.886 119.944 6.75C119.966 6.61232 120.013 6.47998 120.084 6.36C120.145 6.24888 120.23 6.15312 120.334 6.08C120.457 6.00804 120.597 5.96944 120.74 5.968C121.064 5.968 121.298 6.088 121.444 6.328C121.59 6.568 121.668 6.828 121.678 7.108C121.681 7.23246 121.654 7.35577 121.6 7.468C121.547 7.57477 121.519 7.69263 121.52 7.812C121.52 7.896 121.548 7.952 121.6 7.984C121.663 8.01854 121.732 8.03965 121.804 8.046C122.044 8.046 122.198 7.99 122.272 7.876C122.356 7.7172 122.399 7.5397 122.396 7.36C122.396 7.12 122.376 6.854 122.336 6.562C122.296 6.2795 122.211 6.00527 122.084 5.75C121.967 5.51027 121.803 5.29716 121.6 5.124C121.383 4.95157 121.111 4.86348 120.834 4.876C120.294 4.876 119.902 5.01 119.662 5.282C119.422 5.552 119.298 5.958 119.288 6.5C119.288 6.656 119.298 6.812 119.318 6.968C119.338 7.126 119.35 7.282 119.35 7.438C119.35 7.49 119.344 7.516 119.334 7.516C119.301 7.50895 119.27 7.49821 119.24 7.484C119.178 7.45873 119.116 7.43273 119.054 7.406C118.977 7.37372 118.899 7.34763 118.818 7.328C118.685 7.29571 118.547 7.29027 118.412 7.312C118.329 7.32252 118.246 7.32786 118.162 7.328C118.016 7.328 117.942 7.302 117.942 7.25C117.942 7.094 117.934 6.896 117.912 6.656C117.892 6.416 117.84 6.176 117.756 5.936C117.686 5.72247 117.581 5.52231 117.444 5.344C117.318 5.188 117.132 5.104 116.882 5.094C116.714 5.09012 116.551 5.15182 116.428 5.266C116.3 5.38478 116.189 5.52153 116.1 5.672C116.004 5.83449 115.945 6.01616 115.928 6.204C115.911 6.37113 115.89 6.53784 115.866 6.704C115.874 6.97993 115.921 7.25332 116.006 7.516C116.058 7.682 116.116 7.828 116.178 7.954C116.24 8.078 116.314 8.14 116.398 8.14C116.448 8.14 116.518 8.104 116.6 8.032C116.684 7.958 116.726 7.892 116.726 7.828C116.726 7.796 116.71 7.776 116.678 7.766C116.648 7.75559 116.616 7.75018 116.584 7.75C116.512 7.75 116.448 7.714 116.396 7.64C116.342 7.56333 116.301 7.47906 116.272 7.39C116.239 7.29181 116.208 7.19313 116.178 7.094C116.116 6.82416 116.155 6.54083 116.288 6.298C116.382 6.13 116.554 6.042 116.804 6.032ZM113.396 30.36C113.646 30.36 113.892 30.34 114.132 30.296C114.37 30.2551 114.597 30.1704 114.804 30.046C115.002 29.9314 115.164 29.7638 115.272 29.562C115.386 29.3277 115.45 29.0723 115.46 28.812C115.46 28.626 115.428 28.4413 115.366 28.266C115.302 28.0871 115.213 27.9186 115.1 27.766C114.976 27.5704 114.841 27.3827 114.694 27.204C114.547 27.0247 114.411 26.8363 114.288 26.64C114.093 26.3541 113.9 26.0675 113.708 25.78C113.522 25.5 113.334 25.204 113.148 24.89C112.983 24.6239 112.827 24.3531 112.678 24.078C112.525 23.7971 112.347 23.5307 112.146 23.282C112.019 23.1235 111.872 22.9817 111.71 22.86C111.543 22.7345 111.339 22.6683 111.13 22.672C110.912 22.6688 110.701 22.7473 110.538 22.892C110.352 23.0543 110.179 23.2315 110.022 23.422C109.838 23.6381 109.639 23.8419 109.428 24.032C109.208 24.23 108.928 24.386 108.584 24.5C108.351 24.5624 108.137 24.6805 107.96 24.844C107.814 24.99 107.74 25.214 107.74 25.516C107.74 25.724 107.756 25.932 107.788 26.14C107.818 26.348 107.84 26.558 107.85 26.766C107.85 27.046 107.81 27.312 107.724 27.562C107.643 27.7984 107.601 28.0462 107.6 28.296C107.6 28.578 107.7 28.776 107.896 28.89C108.096 29.006 108.318 29.084 108.568 29.124C108.882 29.178 109.178 29.218 109.46 29.25C109.74 29.282 110.016 29.33 110.288 29.39C110.558 29.454 110.828 29.52 111.1 29.594C111.37 29.666 111.658 29.782 111.96 29.938C112.02 29.968 112.116 30.006 112.24 30.046L112.662 30.186C112.818 30.24 112.964 30.282 113.1 30.312C113.197 30.338 113.296 30.354 113.396 30.36ZM119.116 28.484C119.408 28.484 119.72 28.454 120.054 28.39C120.734 28.2626 121.392 28.0362 122.006 27.718C122.292 27.5722 122.564 27.4001 122.818 27.204C122.843 27.1755 122.865 27.1439 122.882 27.11C122.902 27.0698 122.917 27.0276 122.928 26.984V26.968C122.99 26.74 123.042 26.488 123.084 26.218C123.127 25.9429 123.164 25.6668 123.194 25.39C123.224 25.1132 123.261 24.8371 123.304 24.562C123.344 24.292 123.382 24.026 123.412 23.766C123.454 23.486 123.506 23.214 123.568 22.954C123.632 22.694 123.714 22.448 123.818 22.218C123.921 21.9915 124.064 21.7855 124.24 21.61C124.445 21.4123 124.677 21.244 124.928 21.11V21.078L124.912 21.032C124.915 20.9259 124.948 20.8229 125.006 20.734C125.076 20.6192 125.154 20.5096 125.24 20.406C125.323 20.3008 125.424 20.2108 125.538 20.14C125.642 20.0776 125.752 20.0254 125.866 19.984C125.803 19.7327 125.735 19.4826 125.662 19.234C125.589 18.9865 125.527 18.7364 125.474 18.484C125.423 18.1646 125.361 17.8471 125.288 17.532C125.23 17.2876 125.156 17.0471 125.068 16.812C124.978 16.5829 124.857 16.3675 124.708 16.172C124.554 15.964 124.36 15.712 124.132 15.422C124.045 15.3247 123.966 15.2203 123.896 15.11C123.842 14.986 123.81 14.8532 123.804 14.718C123.779 14.5813 123.748 14.4458 123.71 14.312C123.569 13.8055 123.408 13.3051 123.226 12.812C123.13 12.5487 123.015 12.2927 122.882 12.046C122.776 11.8484 122.661 11.6556 122.538 11.468C122.434 11.312 122.324 11.234 122.21 11.234C121.96 11.234 121.662 11.334 121.318 11.532C120.976 11.73 120.61 11.948 120.226 12.188C119.84 12.428 119.466 12.652 119.1 12.86C118.736 13.068 118.408 13.166 118.116 13.156C117.804 13.1558 117.502 13.0516 117.256 12.86C116.991 12.6582 116.75 12.4274 116.536 12.172C116.318 11.912 116.136 11.688 115.99 11.5C115.844 11.312 115.736 11.208 115.662 11.188C115.58 11.188 115.532 11.25 115.522 11.374C115.511 11.5144 115.505 11.6552 115.506 11.796V12.062C115.506 12.126 115.496 12.166 115.474 12.188C115.36 12.428 115.234 12.662 115.1 12.89C114.964 13.12 114.83 13.354 114.694 13.594C114.425 14.0552 114.274 14.5762 114.256 15.11C114.256 15.266 114.266 15.422 114.288 15.578C114.308 15.734 114.36 15.886 114.444 16.032L114.412 16.092C114.332 16.2035 114.243 16.3085 114.146 16.406C114.047 16.5064 113.959 16.6163 113.882 16.734C113.499 17.2991 113.223 17.9295 113.068 18.594C112.912 19.26 112.828 19.938 112.818 20.624C112.818 20.802 112.83 20.98 112.85 21.156C112.87 21.334 112.882 21.51 112.882 21.688C112.881 21.7457 112.876 21.8032 112.866 21.86C112.856 21.9168 112.851 21.9743 112.85 22.032C113.072 22.0571 113.286 22.1316 113.476 22.25C113.716 22.386 113.976 22.558 114.256 22.766C114.536 22.974 114.804 23.214 115.054 23.486C115.304 23.756 115.542 24.02 115.772 24.282C116.002 24.542 116.168 24.802 116.272 25.062C116.376 25.322 116.444 25.536 116.474 25.702C116.479 25.8229 116.46 25.9437 116.417 26.0568C116.374 26.17 116.308 26.2732 116.224 26.36C116.045 26.535 115.833 26.6729 115.6 26.766C115.778 27.078 115.996 27.344 116.256 27.562C116.516 27.782 116.798 27.958 117.1 28.094C117.402 28.23 117.73 28.328 118.084 28.39C118.438 28.454 118.784 28.484 119.116 28.484ZM125.382 30.704C125.6 30.704 125.814 30.672 126.022 30.61C126.337 30.5196 126.637 30.3828 126.912 30.204C127.184 30.026 127.432 29.808 127.662 29.546C128.205 28.9191 128.87 28.4089 129.616 28.046L130.132 27.812C130.309 27.7348 130.481 27.646 130.646 27.546C130.765 27.4704 130.876 27.3818 130.976 27.282C131.026 27.2333 131.066 27.1748 131.093 27.1102C131.12 27.0455 131.133 26.976 131.132 26.906C131.132 26.8255 131.116 26.7459 131.084 26.672C131.047 26.5888 131 26.5102 130.944 26.438C130.801 26.2396 130.666 26.0361 130.538 25.828C130.422 25.6387 130.322 25.44 130.24 25.234L129.99 24.61C129.9 24.3809 129.826 24.1457 129.77 23.906C129.748 23.8319 129.711 23.7632 129.662 23.704C129.561 23.5537 129.424 23.4316 129.263 23.3493C129.102 23.2671 128.923 23.2274 128.742 23.234C128.555 23.2333 128.372 23.2816 128.21 23.374L127.678 23.672C127.493 23.7747 127.305 23.8734 127.116 23.968C126.932 24.0607 126.728 24.1087 126.522 24.108C126.338 24.1161 126.156 24.0618 126.006 23.954C125.862 23.8398 125.745 23.6958 125.662 23.532C125.573 23.3652 125.495 23.1928 125.428 23.016L125.24 22.5C125.158 22.6338 125.065 22.7596 124.96 22.876C124.853 22.9952 124.768 23.1327 124.71 23.282C124.574 23.594 124.49 23.942 124.46 24.328C124.408 24.932 124.34 25.52 124.256 26.094C124.17 26.6793 124.03 27.2552 123.836 27.814C123.781 27.9927 123.739 28.1752 123.71 28.36C123.679 28.5515 123.658 28.7444 123.646 28.938C123.646 29.448 123.804 29.87 124.116 30.204C124.428 30.536 124.85 30.704 125.382 30.704Z" fill="#636D85"/>
<path d="M163.6 7.87242L174.022 6.45292L174.028 16.507L163.61 16.5665L163.6 7.87242ZM174.018 17.6658L174.027 27.7284L163.609 26.2962V17.5978L174.018 17.6658ZM175.282 6.26733L189.101 4.25V16.3795L175.282 16.4886V6.26733ZM189.106 17.7607L189.101 29.835L175.282 27.8828L175.262 17.7381L189.106 17.7607Z" fill="#636D85"/>
</svg>
